<?xml version="1.0" encoding="UTF-8"?>
<svg data-bbox="261.58 153.47 556.83 773.045" viewBox="0 0 1080 1080" xmlns="http://www.w3.org/2000/svg" data-type="color">
    <g>
        <path d="M337.19 477.81h14.4l19.2-3.6c37.6-17.4 56.41-41.8 56.41-73.2V231.8c0-10-2.81-20.4-8.4-31.2-18.61-30.4-41.01-45.6-67.21-45.6h-14.4l-19.2 3.6c-37.61 17.4-56.41 41.81-56.41 73.2v169.21q0 15 8.4 31.2c18.6 30.41 41 45.6 67.21 45.6m-38.4-246.01q10.2-39.6 44.4-39.6h2.4q37.5 0 44.4 44.4v164.41q-10.2 39.6-44.4 39.6h-2.4q-37.5 0-44.4-44.4z" fill="#000000" data-color="1"/>
        <path d="M546 153.48h-13.2l-20.4 3.6c-36.8 18-53.97 42.41-53.97 73.2v243.61l.4 192c0 19.77-3.9 46.33-26.54 49.96h-1.84c-4.29 0-7.65-.63-10.1-1.9-15.92-6.33-23.88-18.34-23.88-36.05V490.98l-1.83-1.9h-24.8l-1.84 1.9V677.9q0 8.07-1.83 12.33c-6.13 17.08-16.84 25.62-32.15 25.62h-5.5c-20.2-5.38-30.31-17.08-30.31-35.1V490.98l-1.84-1.9h-24.79l-1.84 1.9v193.56c0 7.91 2.14 16.13 6.43 24.67 13.92 24.04 31.37 36.05 52.34 36.05h8.26c16.83 0 31.83-7.91 44.99-23.72 14.54 15.81 22.42 23.72 38.49 23.72h8.27c7.65 0 26.75-.66 35.02-5.08 23.26-14.39 31.18-48.83 31.18-70.5l-.33-195.8V230.27q10.2-39.6 44.4-39.6h2.4q37.5 0 44.4 44.4v238.81l2.4 2.4h32.4l2.4-2.4V230.27c0-10-2.81-20.4-8.4-31.2q-27-45.6-68.4-45.6Z" fill="#000000" data-color="1"/>
        <path d="M764.41 318.2c36-21.6 54-46.8 54-75.61v-10.8q0-10.2-4.8-24-26.7-52.8-72-52.8h-13.2l-15.6 2.4q-60 24.3-60 75.6V399.8q0 10.2 4.8 25.2c18.4 35.21 42 52.8 70.8 52.8h13.2q12.3 0 22.8-4.8 54-25.5 54-72v-3.6l-2.4-2.4h-32.4q-2.4 0-2.4 3.6-8.7 42-44.4 42h-2.4c-24.8 0-39.61-14.8-44.4-44.4q3.9-28.2 74.4-78m-74.4 10.8v-97.21q10.2-39.6 44.4-39.6h9.6c24.79 7.61 37.2 22.4 37.2 44.4q0 16.2-9.6 30c-37.01 26.4-63.81 47.2-80.41 62.4H690Z" fill="#000000" data-color="1"/>
        <path d="M586.65 490.04h10.43q33.21 0 55.98 40.8c2.52 9.17 3.79 16.13 3.79 20.88V683.6c0 26.89-15.81 46.81-47.44 59.78l-12.34 1.9h-10.43c-23.89 0-42.86-13.91-56.93-41.75-2.53-7.27-3.79-13.6-3.79-18.98v-8.54c0-22.77 14.23-42.7 42.7-59.77q58.83-41.745 58.83-63.57c0-15.33-9.81-26.41-29.41-33.21h-8.54c-16.6 0-27.99 9.81-34.16 29.41 0 4.43-.63 6.64-1.9 6.64h-25.61l-1.9-1.9v-2.85c0-24.51 14.23-43.49 42.7-56.93 5.69-2.53 11.7-3.79 18.03-3.79Zm-31.31 190.72c0 17.39 9.8 29.1 29.41 35.1h7.59c18.03 0 29.73-10.44 35.11-31.31V607.7h-.95c-13.12 12.02-34.32 28.46-63.57 49.34-5.06 7.28-7.59 15.18-7.59 23.72" fill="#000000" data-color="1"/>
        <path d="M745.1 746.22c12.81 0 25.14-3.48 37-10.44v123.07h29.41V491.93l-1.89-1.9H784l-1.9 1.9V679.8l-.95 9.49c-6.64 18.34-18.34 27.52-35.1 27.52-8.7-1.27-13.76-2.53-15.18-3.8q-20.88-9.96-20.88-33.21V491.93l-1.9-1.9h-25.61l-1.9 1.9v192.61l1.9 14.23c12.96 31.63 33.84 47.44 62.62 47.44Z" fill="#000000" data-color="1"/>
        <path d="M506.11 797.92c14.17 15.15 27.79 30.37 42.13 44.88 15.91 16.09 32.48 31.52 48.76 47.23.4.38.82.74 1.23 1.1 19.94 17.43 31.37 18.13 52.85 3.38 4.54 4.75 9.08 9.48 13.65 14.26-14.67 16.59-42.1 21.64-63.43 10.39-6.89-3.64-13.44-8.46-19.09-13.86-33.01-31.51-65.69-63.35-98.51-95.06-3.56-3.44-7.27-6.71-11.36-10.47 14.23-12.33 26.95-26 44.47-33.38 21.94-9.24 41.02-3.83 57.83 11.76 10.12 9.38 19.84 19.18 29.78 28.76 28.48 27.45 56.94 54.93 85.53 82.27 4.23 4.04 8.87 7.79 13.78 10.95 11.73 7.54 23.71 7.42 35.01-.88 6.5-4.78 12.81-9.96 18.52-15.65 8.19-8.17 15.75-16.97 23.87-25.84-7.87-13.22-28.43-19.91-44.45-12.36-6.52 3.08-12.4 7.82-18.01 12.49-8.16 6.8-15.8 14.22-23.77 21.47l-14.21-14.74c17.85-14.54 39.71-42.64 65.62-42.9 15.98-.86 29.64 4.14 41.31 14.95 7.82 7.25 15.67 14.48 23.88 22.07-2.29 2.69-4.29 5.5-6.74 7.83-14.54 13.8-29.29 27.38-43.75 41.25-12.15 11.66-25.91 19.36-43.26 18.65-15.46-.63-28.34-7.35-39.27-17.84-38.36-36.82-77.39-73-114.57-110.99-22-22.47-44.34-12.66-57.8.27Z" fill="#0d7291" data-color="2"/>
        <path d="M668.06 803.85c6.42-.06 11.82 5.35 11.66 11.69-.16 6.21-5.1 11.01-11.38 11.08-6.4.07-11.24-4.48-11.47-10.8-.25-6.66 4.66-11.9 11.19-11.96Z" fill="#0d7291" data-color="2"/>
    </g>
</svg>
